<svg width="307" height="307" viewBox="0 0 307 307" fill="none" xmlns="http://www.w3.org/2000/svg">
<path fill-rule="evenodd" clip-rule="evenodd" d="M153 0C136.431 0 123 13.4315 123 30V102.333V124H102.333H30C13.4315 124 0 137.431 0 154C0 170.569 13.4315 184 30 184H102.333H123V204.667V277C123 293.569 136.431 307 153 307C169.569 307 183 293.569 183 277V204.667V184H204.667H277C293.569 184 307 170.569 307 154C307 137.431 293.569 124 277 124H204.667H183V102.333V30C183 13.4315 169.569 0 153 0Z" fill="#ffffff"/>
</svg>
