<svg width="18" height="22" viewBox="0 0 18 22" fill="#fff" xmlns="http://www.w3.org/2000/svg">
<path fill-rule="evenodd" clip-rule="evenodd" d="M6.62876 2.62868C7.19137 2.06607 7.95444 1.75 8.75008 1.75C9.54573 1.75 10.3088 2.06607 10.8714 2.62868C11.434 3.19129 11.7501 3.95435 11.7501 4.75C11.7501 5.54565 11.434 6.30871 10.8714 6.87132C10.3088 7.43393 9.54573 7.75 8.75008 7.75C7.95444 7.75 7.19137 7.43393 6.62876 6.87132C6.06616 6.30871 5.75008 5.54565 5.75008 4.75C5.75008 3.95435 6.06616 3.19129 6.62876 2.62868ZM8.75008 0.25C7.55661 0.25 6.41202 0.724106 5.5681 1.56802C4.72419 2.41193 4.25008 3.55653 4.25008 4.75C4.25008 5.94347 4.72419 7.08807 5.5681 7.93198C6.41202 8.77589 7.55661 9.25 8.75008 9.25C9.94356 9.25 11.0882 8.77589 11.9321 7.93198C12.776 7.08807 13.2501 5.94347 13.2501 4.75C13.2501 3.55653 12.776 2.41193 11.9321 1.56802C11.0882 0.724106 9.94356 0.25 8.75008 0.25ZM3.92533 18.0856C5.28396 19.4762 7.10716 20.25 9.00008 20.25C10.893 20.25 12.7162 19.4762 14.0748 18.0856C15.3245 16.8064 16.0883 15.0995 16.2279 13.2815C13.9439 12.2679 11.4856 11.7465 9.00114 11.75H9.00008C6.43436 11.75 3.99175 12.2953 1.77224 13.2813C1.91182 15.0994 2.67558 16.8064 3.92533 18.0856ZM9.00008 21.75C6.69424 21.75 4.48688 20.8068 2.85239 19.1338C1.21884 17.4617 0.287403 15.1947 0.250177 12.8232C0.245575 12.53 0.412259 12.261 0.676856 12.1347C3.2104 10.9246 6.0301 10.2501 8.99955 10.25L8.99903 10.25L9.00008 11V10.25H8.99955C11.8734 10.246 14.713 10.8893 17.323 12.1345C17.5878 12.2608 17.7546 12.5299 17.75 12.8232C17.7128 15.1947 16.7813 17.4617 15.1478 19.1338C13.5133 20.8068 11.3059 21.75 9.00008 21.75Z" fill="white"/>
</svg>
