<svg width="529" height="337" viewBox="0 0 529 337" fill="none" xmlns="http://www.w3.org/2000/svg">
<g style="mix-blend-mode:color-burn">
<path d="M199.838 335.97C209.394 336.367 215.894 332.812 224.698 328.301C257.515 311.485 290.417 294.33 321.43 274.045C365.599 245.156 410.332 215.121 449.764 179.314C468.862 161.971 487.597 143.899 504.526 124.23C515.414 111.581 522.304 99.8166 525.501 83.1993C526.997 75.4198 528.987 65.7292 527.44 57.7491C525.595 48.2334 518.81 39.5178 512.95 32.4746C498.159 14.6964 480.376 7.02811 457.87 6.25868C411.138 4.66102 364.148 11.1932 318.523 21.7649C227.469 42.8628 134.914 64.018 50.1096 106.155C31.1108 115.595 8.12341 130.066 2.4776 153.407C-1.68302 170.604 3.88279 192.462 7.60433 208.917C19.1397 259.934 77.8428 289.725 125.363 276.891C160.683 267.352 187.079 246.944 215.09 223.26C229.615 210.98 243.916 197.579 259.619 186.871C269.373 180.22 279.848 174.595 289.734 168.144C302.949 159.52 318.007 151.019 329.743 140.096C343.541 127.254 354.027 110.394 361.663 92.994C368.061 78.4134 373.79 63.9723 375.578 48.006C376.252 41.9912 376.736 34.8073 371.701 30.4425C367.304 26.6304 359.514 27.5202 354.524 27.9543C337.287 29.4537 320.246 33.5364 303.562 38.2595C269.627 47.8656 235.853 61.8175 203.207 75.3638C163.093 92.0079 127.763 115.246 92.6298 141.18C83.7481 147.735 75.3652 154.984 66.4464 161.501C61.2576 165.293 54.7321 169.024 50.6797 174.185C45.4464 180.849 45.4936 195.537 46.5429 203.093C47.6051 210.739 55.4032 216.552 61.316 220.192C66.7671 223.549 73.2045 223.7 79.3509 224.262C87.9099 225.044 97.167 226.535 105.698 224.498C133.393 217.884 156.622 197.744 178.567 180.012C196.382 165.619 213.455 151.014 229.728 134.739C252.937 111.53 276.02 88.5363 300.746 67.1081M199.297 326.674C222.961 327.656 242.316 308.687 260.967 295.805C280.538 282.288 298.251 266.945 316.37 251.395C343.632 227.998 371.079 204.924 397.641 180.64C414.146 165.552 429.811 149.131 446.753 134.596C449.571 132.178 450.792 130.202 453.043 127.129C460.454 117.011 470.082 106.474 479.058 97.7557C489.706 87.4132 493.742 70.4427 494.971 55.77C496.188 41.2411 501.168 25.9766 487.269 16.1237C474.216 6.87093 460.41 4.704 445.126 4.06919C419.654 3.01099 393.892 0.438247 368.39 1.11044C350.567 1.58032 333.077 4.84998 315.476 7.49894C302.009 9.52567 288.168 8.18172 274.788 10.8463C266.113 12.5741 257.841 17.5746 249.103 18.5376C241.73 19.3502 235.501 21.4693 228.411 24.0322C212.375 29.8284 196.447 35.8383 181.027 43.3011C153.483 56.6312 123.128 61.5781 95.5579 74.6128C92.2062 76.1966 90.0122 78.5874 87.44 81.2589C81.441 87.4916 75.012 93.2963 68.4699 98.9037C62.7629 103.795 55.6971 107.131 50.4591 112.581C44.5074 118.773 38.0542 124.52 32.2286 130.829C27.9843 135.425 23.4684 140.895 21.9501 147.002C19.6662 156.189 13.4059 163.667 12.9368 173.418C12.1907 188.908 14.6488 202.908 25.7625 213.85C29.5378 217.566 32.0748 221.983 36.8836 224.673C44.6835 229.037 54.151 235.849 62.9084 237.318C69.7305 238.461 76.8371 237.885 83.7111 238.64C90.3931 239.373 97.4812 240.882 104.202 239.605C115.387 237.481 124.696 231.539 134.621 225.986C150.388 217.162 166.911 206.837 180.815 194.932C190.127 186.957 198.269 177.299 207.273 168.897C228.542 149.05 250.184 129.58 271.249 109.502C280.257 100.917 288.488 91.2974 297.253 82.6472C304.543 75.4525 313.102 69.5264 320.674 62.6693C326.97 56.9662 332.385 50.4261 338.354 44.456C341.822 40.9862 344.213 36.7661 348.743 35.0986" fill="transparent" stroke="#A7A7A7" stroke-width="2" stroke-linecap="round"/>
</g>
</svg>
