<svg width="14" height="8" viewBox="0 0 14 8" fill="none" xmlns="http://www.w3.org/2000/svg">
<path d="M7.00367 7.58219C7.28422 7.58219 7.51687 7.47954 7.73584 7.26058L12.8884 1.99167C13.0663 1.81376 13.1484 1.60164 13.1484 1.34846C13.1484 0.835253 12.7447 0.417847 12.2315 0.417847C11.9783 0.417847 11.7457 0.52733 11.5609 0.712084L7.01051 5.39251L2.44641 0.712084C2.26165 0.52733 2.03584 0.417847 1.77582 0.417847C1.26262 0.417847 0.852051 0.835253 0.852051 1.34846C0.852051 1.60164 0.941007 1.81376 1.11892 1.99167L6.27149 7.26058C6.49046 7.48639 6.72311 7.58219 7.00367 7.58219Z" fill="#fff" fill-opacity="0.3"/>
</svg>
