<svg width="42" height="45" viewBox="0 0 42 45" fill="none" xmlns="http://www.w3.org/2000/svg">
<path d="M28.3139 41.5063V41.499V34.7398C28.3139 33.6436 27.8752 32.5938 27.0966 31.821C26.3184 31.0484 25.2643 30.6156 24.1668 30.6156H17.8134C15.5299 30.6156 13.6664 32.4552 13.6664 34.7398V41.2028C13.6294 41.3072 13.6089 41.418 13.6067 41.5312C13.5895 42.4556 12.827 43.2105 11.8756 43.2105H7.63996C3.96593 43.2105 1 40.2557 1 36.6261V17.4023C1.03493 16.0606 1.67495 14.8028 2.74744 13.9776L2.75504 13.9717L2.76252 13.9657L17.1716 2.43191L17.1854 2.42084L17.1988 2.40928C19.3226 0.582209 22.4615 0.525501 24.6509 2.27522L24.6539 2.27762L39.3901 13.9613C40.4118 14.8137 41 16.069 41 17.3899V36.6457C41 38.3874 40.302 40.059 39.0575 41.2912C37.8128 42.5236 36.1237 43.215 34.3626 43.2105H34.36H30.0254C29.567 43.2105 29.1289 43.0288 28.8081 42.708C28.4876 42.3875 28.3105 41.9548 28.3139 41.5063Z" stroke="white" stroke-width="2"/>
</svg>
