<svg width="42" height="45" viewBox="0 0 42 45" fill="none" xmlns="http://www.w3.org/2000/svg">
<path d="M14.6664 41.499V34.7398C14.6664 33.0144 16.0753 31.6156 17.8134 31.6156H24.1668C25.0015 31.6156 25.8019 31.9448 26.3921 32.5307C26.9823 33.1166 27.3139 33.9112 27.3139 34.7398V41.499C27.3086 42.2163 27.5919 42.906 28.101 43.4151C28.6101 43.9242 29.3028 44.2105 30.0254 44.2105H34.36C36.3845 44.2157 38.3278 43.421 39.7611 42.0018C41.1945 40.5825 42 38.6554 42 36.6457V17.3899C42 15.7665 41.2751 14.2266 40.0207 13.1851L25.2752 1.49403C22.7102 -0.555811 19.0351 -0.489627 16.5467 1.65122L2.13761 13.1851C0.823953 14.1959 0.0387998 15.7404 0 17.3899V36.6261C0 40.8148 3.42053 44.2105 7.63996 44.2105H11.8756C13.3764 44.2105 14.5961 43.0085 14.607 41.5186L14.6664 41.499Z" fill="#2A2A2A"/>
</svg>
