<svg width="42" height="46" viewBox="0 0 42 46" fill="none" xmlns="http://www.w3.org/2000/svg">
<path d="M9.25507 34.9146L9.25977 34.9221L9.26461 34.9296C9.81972 35.7845 10.8286 36.3265 11.9114 36.213H30.1467H30.196L30.245 36.2082C31.6879 36.0656 32.78 34.8507 32.78 33.419C32.78 31.9691 31.695 30.7501 30.245 30.6068L30.196 30.602H30.1467H11.8973C10.8516 30.5186 9.83122 31.0068 9.25973 31.916C8.67222 32.8274 8.68509 34.0016 9.25507 34.9146ZM11.8533 9.695H10.8533V9.89934C9.79446 10.298 9.03333 11.3113 9.03333 12.512C9.03333 14.066 10.3082 15.306 11.8533 15.306H18.8277C20.3803 15.306 21.65 14.0585 21.65 12.4867C21.65 10.9325 20.3703 9.695 18.8277 9.695H11.8533ZM30.779 1C34.1961 1 36.7181 1.96722 38.386 3.63171C40.0538 5.29613 41 7.78973 41 11.109V34.868C41 38.2487 40.0518 40.7451 38.3876 42.3983C36.7225 44.0524 34.2021 45 30.779 45H11.2233C7.86108 45 5.33651 44.0544 3.65367 42.3956C1.97304 40.739 1 38.241 1 34.868V11.109C1 7.79743 1.9709 5.30234 3.65529 3.63445C5.34099 1.96526 7.86708 1 11.2233 1H30.779ZM30.1467 20.1117H11.8533C10.3065 20.1117 9.03333 21.3557 9.03333 22.908C9.03333 24.462 10.3082 25.702 11.8533 25.702H30.1467C31.6887 25.702 32.9667 24.4628 32.9667 22.908C32.9667 21.3549 31.6903 20.1117 30.1467 20.1117Z" stroke="black" stroke-width="2"/>
</svg>
