<svg width="42" height="46" viewBox="0 0 42 46" fill="none" xmlns="http://www.w3.org/2000/svg">
<path d="M30.779 0C37.9867 0 42 4.094 42 11.109V34.868C42 41.998 37.9867 46 30.779 46H11.2233C4.13 46 0 41.998 0 34.868V11.109C0 4.094 4.13 0 11.2233 0H30.779ZM11.8533 31.602C11.1533 31.533 10.4767 31.855 10.1033 32.453C9.73 33.028 9.73 33.787 10.1033 34.385C10.4767 34.96 11.1533 35.305 11.8533 35.213H30.1467C31.0777 35.121 31.78 34.3367 31.78 33.419C31.78 32.476 31.0777 31.694 30.1467 31.602H11.8533ZM30.1467 21.1117H11.8533C10.8477 21.1117 10.0333 21.919 10.0333 22.908C10.0333 23.897 10.8477 24.702 11.8533 24.702H30.1467C31.15 24.702 31.9667 23.897 31.9667 22.908C31.9667 21.919 31.15 21.1117 30.1467 21.1117ZM18.8277 10.695H11.8533V10.718C10.8477 10.718 10.0333 11.523 10.0333 12.512C10.0333 13.501 10.8477 14.306 11.8533 14.306H18.8277C19.8333 14.306 20.65 13.501 20.65 12.4867C20.65 11.5 19.8333 10.695 18.8277 10.695Z" fill="#2A2A2A"/>
</svg>
