<svg width="671" height="450" viewBox="0 0 671 450" fill="none" xmlns="http://www.w3.org/2000/svg">
<rect width="631" height="389.988" rx="50" fill="#DEFFC4"/>
<g style="mix-blend-mode:color-burn">
<path d="M315.931 448.087C326.24 448.548 333.253 444.421 342.751 439.183C378.156 419.657 413.652 399.738 447.111 376.184C494.763 342.64 543.023 307.766 585.564 266.189C606.168 246.051 626.381 225.068 644.645 202.229C656.391 187.542 663.825 173.882 667.274 154.587C668.888 145.554 671.034 134.302 669.365 125.036C667.375 113.987 660.055 103.867 653.733 95.689C637.776 75.0461 618.59 66.1422 594.31 65.2488C543.893 63.3937 493.197 70.9784 443.975 83.2536C345.741 107.751 245.887 132.315 154.396 181.242C133.899 192.203 109.099 209.005 103.008 236.107C98.5193 256.076 104.524 281.455 108.539 300.562C120.984 359.799 184.316 394.391 235.583 379.489C273.689 368.413 302.166 344.716 332.386 317.216C348.056 302.957 363.485 287.397 380.426 274.964C390.949 267.241 402.25 260.71 412.916 253.219C427.173 243.205 443.418 233.335 456.079 220.652C470.965 205.74 482.278 186.164 490.516 165.96C497.419 149.03 503.6 132.262 505.529 113.723C506.256 106.739 506.778 98.3975 501.346 93.3294C496.602 88.9031 488.198 89.9362 482.814 90.4403C464.218 92.1813 445.834 96.9218 427.834 102.406C391.223 113.56 354.786 129.76 319.566 145.489C276.288 164.815 238.173 191.797 200.269 221.91C190.687 229.522 181.643 237.939 172.021 245.506C166.423 249.909 159.383 254.241 155.011 260.233C149.365 267.971 149.416 285.026 150.548 293.799C151.694 302.677 160.107 309.427 166.486 313.654C172.367 317.552 179.312 317.727 185.943 318.379C195.177 319.288 205.164 321.019 214.368 318.653C244.247 310.974 269.307 287.589 292.983 267C312.202 250.287 330.622 233.329 348.178 214.432C373.217 187.483 398.12 160.784 424.796 135.903" stroke="#A7A7A7" stroke-width="2" stroke-linecap="round"/>
<path d="M315.347 437.293C340.877 438.434 361.759 416.408 381.88 401.45C402.994 385.755 422.104 367.94 441.652 349.885C471.064 322.718 500.675 295.926 529.332 267.729C547.138 250.209 564.038 231.143 582.316 214.265C585.356 211.458 586.674 209.163 589.102 205.595C597.097 193.847 607.485 181.612 617.168 171.489C628.656 159.48 633.01 139.775 634.336 122.738C635.649 105.868 641.022 88.1439 626.027 76.7034C611.945 65.9597 597.05 63.4436 580.561 62.7065C553.08 61.4778 525.287 58.4905 497.774 59.271C478.545 59.8166 459.676 63.6131 440.687 66.6889C426.159 69.0422 411.226 67.4817 396.791 70.5756C387.432 72.5818 378.508 78.3881 369.081 79.5063C361.126 80.4498 354.406 82.9103 346.757 85.8862C329.457 92.6164 312.273 99.5946 295.637 108.26C265.921 123.738 233.172 129.482 203.428 144.617C199.812 146.456 197.445 149.232 194.67 152.334C188.198 159.571 181.262 166.311 174.204 172.822C168.047 178.501 160.424 182.375 154.773 188.703C148.352 195.893 141.39 202.566 135.105 209.891C130.526 215.228 125.654 221.58 124.016 228.671C121.552 239.338 114.798 248.021 114.292 259.343C113.487 277.329 116.139 293.585 128.129 306.29C132.202 310.605 134.939 315.733 140.127 318.857C148.542 323.924 158.756 331.834 168.204 333.539C175.564 334.867 183.231 334.198 190.647 335.074C197.856 335.925 205.503 337.678 212.754 336.195C224.821 333.728 234.864 326.829 245.571 320.381C262.582 310.136 280.408 298.147 295.408 284.323C305.454 275.064 314.238 263.849 323.952 254.094C346.898 231.048 370.247 208.441 392.973 185.128C402.691 175.16 411.571 163.99 421.027 153.946C428.892 145.592 438.126 138.711 446.295 130.749C453.088 124.127 458.93 116.533 465.369 109.601C469.111 105.572 471.69 100.672 476.578 98.7358" stroke="#A7A7A7" stroke-width="2" stroke-linecap="round"/>
</g>
</svg>
